<svg width="42" height="42" viewBox="0 0 42 42" fill="none" xmlns="http://www.w3.org/2000/svg">
<path d="M36.8905 15.0151V26.985C36.8905 28.945 35.8405 30.7651 34.143 31.7626L23.748 37.7651C22.0505 38.7451 19.9505 38.7451 18.2355 37.7651L7.84052 31.7626C6.14302 30.7826 5.09302 28.9625 5.09302 26.985V15.0151C5.09302 13.0551 6.14302 11.235 7.84052 10.2375L18.2355 4.235C19.933 3.255 22.033 3.255 23.748 4.235L34.143 10.2375C35.8405 11.235 36.8905 13.0376 36.8905 15.0151Z" stroke="#E9631A" stroke-width="1.5" stroke-linecap="round" stroke-linejoin="round"/>
<path d="M20.9991 19.2497C23.2511 19.2497 25.0766 17.4241 25.0766 15.1722C25.0766 12.9202 23.2511 11.0947 20.9991 11.0947C18.7472 11.0947 16.9216 12.9202 16.9216 15.1722C16.9216 17.4241 18.7472 19.2497 20.9991 19.2497Z" stroke="#E9631A" stroke-width="1.5" stroke-linecap="round" stroke-linejoin="round"/>
<path d="M27.9993 29.1551C27.9993 26.0051 24.8668 23.4502 20.9993 23.4502C17.1318 23.4502 13.9993 26.0051 13.9993 29.1551" stroke="#E9631A" stroke-width="1.5" stroke-linecap="round" stroke-linejoin="round"/>
</svg>
