<svg width="52" height="52" viewBox="0 0 52 52" fill="none" xmlns="http://www.w3.org/2000/svg">
<path d="M28.1885 6.32734L40.9718 12.004C44.6551 13.629 44.6551 16.3157 40.9718 17.9407L28.1885 23.6173C26.7368 24.2673 24.3535 24.2673 22.9018 23.6173L10.1185 17.9407C6.43512 16.3157 6.43512 13.629 10.1185 12.004L22.9018 6.32734C24.3535 5.67734 26.7368 5.67734 28.1885 6.32734Z" stroke="#1A1A1A" stroke-width="3" stroke-linecap="round" stroke-linejoin="round"/>
<path d="M6.5 23.833C6.5 25.653 7.865 27.7547 9.53333 28.4913L24.245 35.0347C25.3717 35.533 26.65 35.533 27.755 35.0347L42.4667 28.4913C44.135 27.7547 45.5 25.653 45.5 23.833" stroke="#1A1A1A" stroke-width="3" stroke-linecap="round" stroke-linejoin="round"/>
<path d="M6.5 34.667C6.5 36.682 7.69167 38.502 9.53333 39.3253L24.245 45.8687C25.3717 46.367 26.65 46.367 27.755 45.8687L42.4667 39.3253C44.3083 38.502 45.5 36.682 45.5 34.667" stroke="#1A1A1A" stroke-width="3" stroke-linecap="round" stroke-linejoin="round"/>
</svg>
